<?xml version="1.0" encoding="utf-8"?>
<!-- Generator: Adobe Illustrator 25.4.1, SVG Export Plug-In . SVG Version: 6.00 Build 0)  -->
<svg version="1.1" xmlns="http://www.w3.org/2000/svg" xmlns:xlink="http://www.w3.org/1999/xlink" x="0px" y="0px"
	 viewBox="0 0 437.7 256" style="enable-background:new 0 0 437.7 256;" xml:space="preserve">
<style type="text/css">
	.st0{fill:#0274AB;}
	.st1{fill:#010101;}
</style>
	<path class="st0" d="M201,128c0,43.4,25.1,80.8,61.7,98.4L210.4,83.5c-6.1,13.4-9.7,28.6-9.7,44.5H201z M384,122.5
		c0-13.5-4.9-22.9-9-30.1c-5.5-9-10.7-16.6-10.7-25.6c0-10,7.6-19.4,18.4-19.4c0.5,0,0.8,0,1.6,0.1c-19.6-17.7-45.7-28.9-74-28.7
		c-38.2,0-71.8,19.6-91.3,49.4c2.6,0,5.2,0,7.2,0.1c11.4,0,29.1-1.4,29.1-1.4c5.9-0.3,6.8,8.4,0.8,9.2c0,0-5.9,0.7-12.5,1
		l39.8,118.4l23.9-71.7l-17-46.7c-5.9-0.3-11.5-1-11.5-1c-5.9-0.3-5.2-9.4,0.7-9c0,0,17.9,1.2,28.7,1.4c11.4,0,29.1-1.4,29.1-1.4
		c5.9-0.3,6.8,8.4,0.8,9c0,0-5.9,0.7-12.5,1L365,194.5l10.9-36.4c4.5-15.3,8-26.1,8-35.6H384z M312.2,137.6l-32.8,95.3
		c9.8,2.8,20.3,4.4,31.1,4.4c12.7,0,24.9-2.2,36.3-6.2c-0.3-0.5-0.6-1-0.8-1.5L312.2,137.6z M406.2,75.4c0.5,3.6,0.8,7.2,0.8,11.2
		c0,11.1-2.1,23.6-8.3,39.1l-33.4,96.5c32.5-18.9,54.3-54.1,54.3-94.5c-0.1-19-5-36.9-13.4-52.3L406.2,75.4z M310.3,0.6
		C240,0.6,182.8,57.7,182.8,128c0,70.1,57.3,127.4,127.4,127.4S437.7,198.3,437.7,128C437.7,57.9,380.3,0.6,310.3,0.6z
			M310.3,249.6c-67,0-121.6-54.5-121.6-121.6c0-66.9,54.7-121.4,121.6-121.4s121.6,54.5,121.4,121.6
		C431.8,194.9,377.1,249.4,310.3,249.6z"/>
	<path class="st1" d="M119.6,0.1c-0.6,0.1-2.3,0.2-3.9,0.4c-36.4,3.3-70.4,22.9-92,53c-12,16.8-19.7,35.8-22.6,55.9
		c-1,7-1.2,9.1-1.2,18.6c0,9.5,0.1,11.6,1.2,18.6c7,48.1,41.2,88.4,87.6,103.4c8.3,2.7,17.1,4.5,27,5.6c3.9,0.4,20.6,0.4,24.5,0
		c17.2-1.9,31.8-6.2,46.1-13.5c2.2-1.1,2.6-1.4,2.3-1.7c-0.2-0.2-9.6-12.7-20.8-27.9l-20.5-27.6l-25.7-38
		C107.6,126.1,96,109,95.9,109c-0.1,0-0.2,16.8-0.3,37.4c-0.1,36.1-0.1,37.5-0.6,38.4c-0.7,1.2-1.2,1.7-2.2,2.3
		c-0.8,0.4-1.5,0.5-5.3,0.5h-4.3l-1.2-0.7c-0.8-0.5-1.3-1.1-1.7-1.8l-0.5-1.1l0.1-50.2l0.1-50.2l0.8-1c0.4-0.5,1.3-1.2,1.9-1.5
		c1-0.5,1.4-0.6,5.8-0.6c5.1,0,6,0.2,7.3,1.7c0.4,0.4,14.3,21.3,30.9,46.5s39.3,59.6,50.5,76.5l20.3,30.7l1-0.7
		c9.1-5.9,18.7-14.3,26.3-23.1c16.2-18.6,26.6-41.3,30.1-65.4c1-7,1.2-9.1,1.2-18.6c0-9.5-0.1-11.6-1.2-18.6
		c-7-48.1-41.2-88.4-87.6-103.4c-8.2-2.7-16.9-4.5-26.7-5.6C138.2,0.1,121.7-0.1,119.6,0.1L119.6,0.1z M172,77.5
		c1.2,0.6,2.2,1.8,2.5,3c0.2,0.7,0.3,14.6,0.2,45.9l-0.1,45l-7.9-12.2l-8-12.2v-32.7c0-21.1,0.1-33,0.3-33.6
		c0.4-1.4,1.3-2.5,2.5-3.2c1-0.5,1.4-0.6,5.3-0.6C170.5,77,171.2,77,172,77.5z"/>
</svg>
